<svg xmlns="http://www.w3.org/2000/svg" viewBox="0 0 60 30">
  <rect width="60" height="30" fill="#fff"/>
  <rect width="60" height="2.3" y="2.3" fill="#d52b1e"/>
  <rect width="60" height="2.3" y="6.9" fill="#d52b1e"/>
  <rect width="60" height="2.3" y="11.5" fill="#d52b1e"/>
  <rect width="60" height="2.3" y="16.1" fill="#d52b1e"/>
  <rect width="60" height="2.3" y="20.7" fill="#d52b1e"/>
  <rect width="60" height="2.3" y="25.3" fill="#d52b1e"/>
  <rect width="24" height="16.1" fill="#002868"/>
  <g fill="#fff">
    <circle cx="4" cy="4" r="1.2"/>
    <circle cx="8" cy="4" r="1.2"/>
    <circle cx="12" cy="4" r="1.2"/>
    <circle cx="16" cy="4" r="1.2"/>
    <circle cx="20" cy="4" r="1.2"/>
    <circle cx="4" cy="8" r="1.2"/>
    <circle cx="8" cy="8" r="1.2"/>
    <circle cx="12" cy="8" r="1.2"/>
    <circle cx="16" cy="8" r="1.2"/>
    <circle cx="20" cy="8" r="1.2"/>
    <circle cx="4" cy="12" r="1.2"/>
    <circle cx="8" cy="12" r="1.2"/>
    <circle cx="12" cy="12" r="1.2"/>
    <circle cx="16" cy="12" r="1.2"/>
    <circle cx="20" cy="12" r="1.2"/>
  </g>
</svg> 